# Wavefront OBJ file automatically generated by Tiled2Unity

# Vertices (Count = 170)
v 0 -2.56 0
v -5.12 -2.56 0
v -5.12 -0.08 0
v 0 -0.08 0
v -0.8 -0.48 0
v -0.96 -0.48 0
v -0.96 -0.32 0
v -0.8 -0.32 0
v -1.12 -0.48 0
v -1.12 -0.32 0
v -1.44 -0.48 0
v -1.6 -0.48 0
v -1.6 -0.32 0
v -1.44 -0.32 0
v -1.76 -0.48 0
v -1.76 -0.32 0
v -2.08 -0.48 0
v -2.24 -0.48 0
v -2.24 -0.32 0
v -2.08 -0.32 0
v -2.4 -0.48 0
v -2.4 -0.32 0
v -2.56 -0.48 0
v -2.56 -0.32 0
v -2.72 -0.48 0
v -2.72 -0.32 0
v -2.88 -0.48 0
v -2.88 -0.32 0
v -3.04 -0.48 0
v -3.04 -0.32 0
v -3.36 -0.48 0
v -3.52 -0.48 0
v -3.52 -0.32 0
v -3.36 -0.32 0
v -3.68 -0.48 0
v -3.68 -0.32 0
v -4 -0.48 0
v -4.16 -0.48 0
v -4.16 -0.32 0
v -4 -0.32 0
v -4.32 -0.48 0
v -4.32 -0.32 0
v -0.8 -0.64 0
v -0.96 -0.64 0
v -1.6 -0.64 0
v -1.76 -0.64 0
v -2.08 -0.64 0
v -2.24 -0.64 0
v -2.88 -0.64 0
v -3.04 -0.64 0
v -3.36 -0.64 0
v -3.52 -0.64 0
v -4.16 -0.64 0
v -4.32 -0.64 0
v -0.8 -0.8 0
v -0.96 -0.8 0
v -1.6 -0.8 0
v -1.76 -0.8 0
v -2.08 -0.8 0
v -2.24 -0.8 0
v -2.88 -0.8 0
v -3.04 -0.8 0
v -3.36 -0.8 0
v -3.52 -0.8 0
v -4.16 -0.8 0
v -4.32 -0.8 0
v -0.8 -0.96 0
v -0.96 -0.96 0
v -1.6 -0.96 0
v -1.76 -0.96 0
v -2.08 -0.96 0
v -2.24 -0.96 0
v -2.88 -0.96 0
v -3.04 -0.96 0
v -3.36 -0.96 0
v -3.52 -0.96 0
v -4.16 -0.96 0
v -4.32 -0.96 0
v -0.8 -1.12 0
v -0.96 -1.12 0
v -1.6 -1.12 0
v -1.76 -1.12 0
v -1.92 -1.12 0
v -1.92 -0.96 0
v -2.08 -1.12 0
v -2.24 -1.12 0
v -2.88 -1.12 0
v -3.04 -1.12 0
v -3.2 -1.12 0
v -3.2 -0.96 0
v -3.36 -1.12 0
v -3.52 -1.12 0
v -4.16 -1.12 0
v -4.32 -1.12 0
v -0.8 -1.28 0
v -0.96 -1.28 0
v -1.76 -1.28 0
v -1.92 -1.28 0
v -2.08 -1.28 0
v -3.04 -1.28 0
v -3.2 -1.28 0
v -3.36 -1.28 0
v -4.16 -1.28 0
v -4.32 -1.28 0
v -0.8 -1.44 0
v -0.96 -1.44 0
v -1.76 -1.44 0
v -1.92 -1.44 0
v -2.08 -1.44 0
v -3.04 -1.44 0
v -3.2 -1.44 0
v -3.36 -1.44 0
v -4.16 -1.44 0
v -4.32 -1.44 0
v -0.8 -1.6 0
v -0.96 -1.6 0
v -4.16 -1.6 0
v -4.32 -1.6 0
v -0.8 -1.76 0
v -0.96 -1.76 0
v -4.16 -1.76 0
v -4.32 -1.76 0
v -0.8 -1.92 0
v -0.96 -1.92 0
v -1.12 -1.92 0
v -1.12 -1.76 0
v -1.28 -1.92 0
v -1.28 -1.76 0
v -1.44 -1.92 0
v -1.44 -1.76 0
v -1.6 -1.92 0
v -1.6 -1.76 0
v -1.76 -1.92 0
v -1.76 -1.76 0
v -3.36 -1.92 0
v -3.52 -1.92 0
v -3.52 -1.76 0
v -3.36 -1.76 0
v -3.68 -1.92 0
v -3.68 -1.76 0
v -3.84 -1.92 0
v -3.84 -1.76 0
v -4 -1.92 0
v -4 -1.76 0
v -4.16 -1.92 0
v -4.32 -1.92 0
v -1.6 -2.08 0
v -1.76 -2.08 0
v -3.36 -2.08 0
v -3.52 -2.08 0
v -1.6 -2.24 0
v -1.76 -2.24 0
v -1.92 -2.24 0
v -1.92 -2.08 0
v -2.08 -2.24 0
v -2.08 -2.08 0
v -2.24 -2.24 0
v -2.24 -2.08 0
v -2.4 -2.24 0
v -2.4 -2.08 0
v -2.72 -2.24 0
v -2.88 -2.24 0
v -2.88 -2.08 0
v -2.72 -2.08 0
v -3.04 -2.24 0
v -3.04 -2.08 0
v -3.2 -2.24 0
v -3.2 -2.08 0
v -3.36 -2.24 0
v -3.52 -2.24 0

# Texture cooridinates (Count = 4)
vt 0.0001220703 0.0001220703
vt 0.9998779 0.0001220703
vt 0.9998779 0.9998779
vt 0.0001220703 0.9998779

# Normal
vn 0 0 -1

# Groups (Count = 2)

g mesh_0001
f 1/1/1 2/2/1 3/3/1 4/4/1

g mesh_0002
f 5/1/1 6/2/1 7/3/1 8/4/1
f 6/1/1 9/2/1 10/3/1 7/4/1
f 11/1/1 12/2/1 13/3/1 14/4/1
f 12/1/1 15/2/1 16/3/1 13/4/1
f 17/1/1 18/2/1 19/3/1 20/4/1
f 18/1/1 21/2/1 22/3/1 19/4/1
f 21/1/1 23/2/1 24/3/1 22/4/1
f 23/1/1 25/2/1 26/3/1 24/4/1
f 25/1/1 27/2/1 28/3/1 26/4/1
f 27/1/1 29/2/1 30/3/1 28/4/1
f 31/1/1 32/2/1 33/3/1 34/4/1
f 32/1/1 35/2/1 36/3/1 33/4/1
f 37/1/1 38/2/1 39/3/1 40/4/1
f 38/1/1 41/2/1 42/3/1 39/4/1
f 43/1/1 44/2/1 6/3/1 5/4/1
f 45/1/1 46/2/1 15/3/1 12/4/1
f 47/1/1 48/2/1 18/3/1 17/4/1
f 49/1/1 50/2/1 29/3/1 27/4/1
f 51/1/1 52/2/1 32/3/1 31/4/1
f 53/1/1 54/2/1 41/3/1 38/4/1
f 55/1/1 56/2/1 44/3/1 43/4/1
f 57/1/1 58/2/1 46/3/1 45/4/1
f 59/1/1 60/2/1 48/3/1 47/4/1
f 61/1/1 62/2/1 50/3/1 49/4/1
f 63/1/1 64/2/1 52/3/1 51/4/1
f 65/1/1 66/2/1 54/3/1 53/4/1
f 67/1/1 68/2/1 56/3/1 55/4/1
f 69/1/1 70/2/1 58/3/1 57/4/1
f 71/1/1 72/2/1 60/3/1 59/4/1
f 73/1/1 74/2/1 62/3/1 61/4/1
f 75/1/1 76/2/1 64/3/1 63/4/1
f 77/1/1 78/2/1 66/3/1 65/4/1
f 79/1/1 80/2/1 68/3/1 67/4/1
f 81/1/1 82/2/1 70/3/1 69/4/1
f 82/1/1 83/2/1 84/3/1 70/4/1
f 83/1/1 85/2/1 71/3/1 84/4/1
f 85/1/1 86/2/1 72/3/1 71/4/1
f 87/1/1 88/2/1 74/3/1 73/4/1
f 88/1/1 89/2/1 90/3/1 74/4/1
f 89/1/1 91/2/1 75/3/1 90/4/1
f 91/1/1 92/2/1 76/3/1 75/4/1
f 93/1/1 94/2/1 78/3/1 77/4/1
f 95/1/1 96/2/1 80/3/1 79/4/1
f 97/1/1 98/2/1 83/3/1 82/4/1
f 98/1/1 99/2/1 85/3/1 83/4/1
f 100/1/1 101/2/1 89/3/1 88/4/1
f 101/1/1 102/2/1 91/3/1 89/4/1
f 103/1/1 104/2/1 94/3/1 93/4/1
f 105/1/1 106/2/1 96/3/1 95/4/1
f 107/1/1 108/2/1 98/3/1 97/4/1
f 108/1/1 109/2/1 99/3/1 98/4/1
f 110/1/1 111/2/1 101/3/1 100/4/1
f 111/1/1 112/2/1 102/3/1 101/4/1
f 113/1/1 114/2/1 104/3/1 103/4/1
f 115/1/1 116/2/1 106/3/1 105/4/1
f 117/1/1 118/2/1 114/3/1 113/4/1
f 119/1/1 120/2/1 116/3/1 115/4/1
f 121/1/1 122/2/1 118/3/1 117/4/1
f 123/1/1 124/2/1 120/3/1 119/4/1
f 124/1/1 125/2/1 126/3/1 120/4/1
f 125/1/1 127/2/1 128/3/1 126/4/1
f 127/1/1 129/2/1 130/3/1 128/4/1
f 129/1/1 131/2/1 132/3/1 130/4/1
f 131/1/1 133/2/1 134/3/1 132/4/1
f 135/1/1 136/2/1 137/3/1 138/4/1
f 136/1/1 139/2/1 140/3/1 137/4/1
f 139/1/1 141/2/1 142/3/1 140/4/1
f 141/1/1 143/2/1 144/3/1 142/4/1
f 143/1/1 145/2/1 121/3/1 144/4/1
f 145/1/1 146/2/1 122/3/1 121/4/1
f 147/1/1 148/2/1 133/3/1 131/4/1
f 149/1/1 150/2/1 136/3/1 135/4/1
f 151/1/1 152/2/1 148/3/1 147/4/1
f 152/1/1 153/2/1 154/3/1 148/4/1
f 153/1/1 155/2/1 156/3/1 154/4/1
f 155/1/1 157/2/1 158/3/1 156/4/1
f 157/1/1 159/2/1 160/3/1 158/4/1
f 161/1/1 162/2/1 163/3/1 164/4/1
f 162/1/1 165/2/1 166/3/1 163/4/1
f 165/1/1 167/2/1 168/3/1 166/4/1
f 167/1/1 169/2/1 149/3/1 168/4/1
f 169/1/1 170/2/1 150/3/1 149/4/1

